<?xml version="1.0" encoding="UTF-8" standalone="no"?>
<!-- Created with Inkscape (http://www.inkscape.org/) -->

<svg
   width="48"
   height="48"
   viewBox="0 0 48 48"
   version="1.1"
   id="svg1"
   xmlns="http://www.w3.org/2000/svg"
   xmlns:svg="http://www.w3.org/2000/svg">
  <defs
     id="defs1" />
  <path
     id="path1"
     style="fill:#ffffff"
     d="M 24,11.111328 A 12.888331,12.888331 0 0 0 11.111328,24 12.888331,12.888331 0 0 0 24,36.888672 12.888331,12.888331 0 0 0 36.888672,24 12.888331,12.888331 0 0 0 24,11.111328 Z m 0,4.769531 A 8.1186876,8.1186876 0 0 1 32.119141,24 8.1186876,8.1186876 0 0 1 24,32.119141 8.1186876,8.1186876 0 0 1 15.880859,24 8.1186876,8.1186876 0 0 1 24,15.880859 Z" />
</svg>
